<svg id="Capa_1" enable-background="new 0 0 497 497" height="512" viewBox="0 0 497 497" width="512" xmlns="http://www.w3.org/2000/svg"><path d="m45 150 105 347h30.01l68.49-60 68.5 60h30l120-347z" fill="#feccad"/><path d="m391.975 300 105.025-120-.023-82.502c-.001-4.141-3.359-7.498-7.5-7.498h-22.502z" fill="#6e1d0b"/><path d="m361.975 90h105v210h-105z" fill="#a42b10"/><path d="m497 180v309.5c0 4.142-3.358 7.5-7.5 7.5h-22.5l-75-158.5 75-158.5z" fill="#fd805e"/><path d="m467 180v317h-90l-15-15v-302z" fill="#fea686"/><path d="m135 300-135-120v-82.5c0-4.142 3.358-7.5 7.5-7.5h127.5z" fill="#a42b10"/><path d="m135 180v302l-15 15h-112.5c-4.142 0-7.5-3.358-7.5-7.5v-309.5z" fill="#fea686"/><path d="m317 60v30h-30v-30h-77v30h-30v-30h-45v75h227v-75z" fill="#fea686"/><path d="m135 120h227v60h-227z" fill="#fff"/><path d="m377 150-15 30-15-30v-142.5c0-4.142 3.358-7.5 7.5-7.5h15c4.142 0 7.5 3.358 7.5 7.5z" fill="#feccad"/><path d="m347 150h30v347h-30z" fill="#fc5a37"/><path d="m150 150-15 30-15-30v-142.5c0-4.142 3.358-7.5 7.5-7.5h15c4.142 0 7.5 3.358 7.5 7.5z" fill="#feccad"/><path d="m120 150h30v347h-30z" fill="#fc5a37"/><path d="m316.99 467v30h-29.99l-30-60z" fill="#fff2d4"/><path d="m287 407v90h-106.99v-30z" fill="#fff"/><path d="m316.98 315 .01 152h-29.99l-30.01-182z" fill="#a42b10"/><path d="m286.99 285 .01 182h-38.5l-60.01-182z" fill="#db3916"/><path d="m248.49 285 .01 182h-68.49l-.02-152z" fill="#fc5a37"/><path d="m248.49 216.31 38.5 98.69h29.99c0-45.01-28.59-83.64-68.49-98.69z" fill="#6e1d0b"/><path d="m286.99 315h-107c0-45.01 28.59-83.64 68.5-98.69 22.43 15.05 38.5 53.68 38.5 98.69z" fill="#a42b10"/><path d="m60 210h30v45l-45 15z" fill="#48d9ff"/><path d="m60 210h-30v45l30 30z" fill="#adeeff"/><path d="m90 255h-30l-15 34.995 15 33.505h30z" fill="#adeeff"/><path d="m30 255h30v68.5h-30z" fill="#e0f8ff"/><path d="m60 353.5h30v45l-45 15z" fill="#48d9ff"/><path d="m60 353.5h-30v45l30 30z" fill="#adeeff"/><path d="m90 398.5h-30l-15 34.995 15 33.505h30z" fill="#adeeff"/><path d="m30 398.5h30v68.5h-30z" fill="#e0f8ff"/><path d="m437 353.5h30v45l-45 15z" fill="#48d9ff"/><path d="m437 353.5h-30v45l30 30z" fill="#adeeff"/><path d="m467 398.5h-30l-15 34.995 15 33.505h30z" fill="#adeeff"/><path d="m407 398.5h30v68.5h-30z" fill="#e0f8ff"/><path d="m437 210h30v45l-45 15z" fill="#48d9ff"/><path d="m437 210h-30v45l30 30z" fill="#adeeff"/><path d="m467 255h-30l-15 34.995 15 33.505h30z" fill="#adeeff"/><path d="m407 255h30v68.5h-30z" fill="#e0f8ff"/></svg>