<?xml version="1.0" encoding="iso-8859-1"?>
<!-- Generator: Adobe Illustrator 19.0.0, SVG Export Plug-In . SVG Version: 6.00 Build 0)  -->
<svg version="1.1" id="Capa_1" xmlns="http://www.w3.org/2000/svg" xmlns:xlink="http://www.w3.org/1999/xlink" x="0px" y="0px"
	 viewBox="0 0 511.634 511.634" style="enable-background:new 0 0 511.634 511.634;" xml:space="preserve">
<path style="fill:#D7E9FF;" d="M475.668,267.806c0,121.351-98.406,219.843-219.843,219.843S35.982,389.157,35.982,267.806
	c0-121.354,98.406-219.847,219.843-219.847C377.261,47.96,475.668,146.452,475.668,267.806z"/>
<path style="fill:#FFFFFF;" d="M427.702,267.806c0,94.839-76.914,171.878-171.877,171.878c-94.964,0-171.878-77.039-171.878-171.878
	c0-94.842,76.914-171.881,171.878-171.881C350.788,95.925,427.702,172.964,427.702,267.806z"/>
<polygon style="fill:#94C1FF;" points="323.776,463.667 307.788,479.655 203.862,479.655 187.873,463.667 187.873,407.707 
	323.776,407.707 "/>
<polygon style="fill:#D7E9FF;" points="203.862,407.707 187.873,407.707 187.873,463.667 203.862,479.655 219.85,479.655 
	203.862,463.667 "/>
<polygon style="fill:#5C9EFF;" points="307.788,407.707 323.776,407.707 323.776,463.667 307.788,479.655 291.798,479.655 
	307.788,463.667 "/>
<path style="fill:#D7E9FF;" d="M387.73,267.806c0-72.858-59.059-131.91-131.905-131.91s-131.906,59.052-131.906,131.91
	c0,47.95,25.677,89.812,63.954,112.904v26.996h135.903V380.71C362.053,357.618,387.73,315.756,387.73,267.806z"/>
<g>
	<path style="fill:#FFFFFF;" d="M255.825,135.897c2.701,0,5.348,0.219,8.002,0.406c-69.107,4.153-123.919,61.347-123.919,131.504
		c0,71.152,47.965,112.904,47.965,112.904c-38.277-23.093-63.954-64.954-63.954-112.904
		C123.919,194.948,182.978,135.897,255.825,135.897z"/>
	<path style="fill:#FFFFFF;" d="M255.833,135.897c-2.701,0-5.348,0.219-8.002,0.406c69.107,4.153,123.919,61.347,123.919,131.504
		c0,71.152-47.966,112.904-47.966,112.904c38.277-23.093,63.954-64.954,63.954-112.904
		C387.738,194.948,328.679,135.897,255.833,135.897z"/>
</g>
<path style="fill:#94C1FF;" d="M219.85,479.655c0,0,7.994,15.989,35.975,15.989c27.979,0,35.974-15.989,35.974-15.989H219.85z"/>
<path style="fill:#D7E9FF;" d="M235.838,479.655H219.85c0,0,7.994,15.989,35.975,15.989c2.888,0,5.52-0.203,7.994-0.516
	C242.318,492.474,235.838,479.655,235.838,479.655z"/>
<path style="fill:#5C9EFF;" d="M275.81,479.655h15.988c0,0-7.994,15.989-35.974,15.989c-2.889,0-5.52-0.203-7.995-0.516
	C269.331,492.474,275.81,479.655,275.81,479.655z"/>
<g>
	<rect x="187.877" y="399.717" style="fill:#94C1FF;" width="135.9" height="7.994"/>
	<polygon style="fill:#94C1FF;" points="339.756,263.805 171.877,263.805 195.859,223.834 317.554,223.834 	"/>
	<polygon style="fill:#94C1FF;" points="293.166,263.805 218.468,263.805 255.817,231.828 	"/>
</g>
<polygon style="fill:#5C9EFF;" points="227.837,263.805 171.877,263.805 193.08,228.463 "/>
<polygon style="fill:#94C1FF;" points="193.08,228.463 171.877,263.805 187.865,263.805 203.01,238.558 "/>
<polygon style="fill:#5C9EFF;" points="283.796,263.805 339.756,263.805 318.553,228.463 "/>
<polygon style="fill:#94C1FF;" points="259.814,335.758 255.817,351.747 251.819,335.758 215.97,263.805 295.664,263.805 "/>
<polygon style="fill:#5C9EFF;" points="255.817,344.252 255.817,351.747 171.877,263.805 215.97,263.805 "/>
<polygon style="fill:#94C1FF;" points="187.865,263.805 171.877,263.805 255.817,351.747 255.817,344.252 246.289,325.015 "/>
<polygon style="fill:#5C9EFF;" points="255.817,344.252 255.817,351.747 339.756,263.805 295.664,263.805 "/>
<g>
	<polygon style="fill:#94C1FF;" points="323.768,263.805 339.756,263.805 255.817,351.747 255.817,344.252 265.341,325.015 	"/>
	<polygon style="fill:#94C1FF;" points="318.553,228.463 339.756,263.805 323.768,263.805 308.623,238.558 	"/>
</g>
<g>
	<path style="fill:#116FFF;" d="M307.78,483.653H203.854c-1.062,0-2.077-0.422-2.826-1.172l-15.989-15.988
		c-0.75-0.75-1.171-1.765-1.171-2.826v-55.96c0-2.218,1.788-3.997,3.997-3.997h135.903c2.21,0,3.997,1.779,3.997,3.997v55.96
		c0,1.062-0.422,2.076-1.171,2.826l-15.988,15.988C309.856,483.231,308.841,483.653,307.78,483.653z M205.509,475.658h100.616
		l13.646-13.646v-50.308H191.862v50.308L205.509,475.658z"/>
	<path style="fill:#116FFF;" d="M179.867,435.686c-2.111,0-3.876-1.654-3.989-3.794c-0.113-2.201,1.577-4.075,3.782-4.2
		l151.892-7.994c2.179-0.188,4.083,1.577,4.208,3.779c0.109,2.201-1.576,4.09-3.786,4.199l-151.892,7.994
		C180.011,435.686,179.937,435.686,179.867,435.686z"/>
	<path style="fill:#116FFF;" d="M179.867,459.67c-2.111,0-3.876-1.655-3.989-3.794c-0.113-2.202,1.577-4.075,3.782-4.2
		l151.892-7.994c2.179-0.172,4.083,1.577,4.208,3.778c0.109,2.201-1.576,4.091-3.786,4.2l-151.892,7.994
		C180.011,459.67,179.937,459.67,179.867,459.67z"/>
	<path style="fill:#116FFF;" d="M323.768,411.704H187.865c-2.209,0-3.997-1.796-3.997-3.997v-24.78
		c-40.092-25.061-63.954-67.936-63.954-115.121c0-74.942,60.964-135.907,135.903-135.907c74.938,0,135.902,60.964,135.902,135.907
		c0,47.201-23.865,90.076-63.954,115.121v24.779C327.765,409.908,325.978,411.704,323.768,411.704z M191.862,403.71h127.909v-23.015
		c0-1.39,0.734-2.701,1.936-3.42c38.832-23.421,62.019-64.345,62.019-109.469c0-70.531-57.381-127.912-127.908-127.912
		c-70.528,0-127.909,57.381-127.909,127.912c0,45.124,23.187,86.048,62.022,109.469c1.198,0.719,1.932,2.03,1.932,3.42v23.015
		H191.862z"/>
	<path style="fill:#116FFF;" d="M255.817,499.641c-30.104,0-39.18-17.457-39.55-18.206c-0.988-1.968-0.187-4.372,1.788-5.355
		c1.968-0.983,4.353-0.203,5.348,1.749c0.316,0.608,7.569,13.818,32.415,13.818c24.88,0,32.117-13.257,32.414-13.818
		c1.022-1.937,3.419-2.701,5.371-1.718c1.952,0.999,2.748,3.372,1.765,5.324C294.992,482.184,285.921,499.641,255.817,499.641z"/>
	<path style="fill:#116FFF;" d="M83.955,271.803H3.997c-2.21,0-3.997-1.795-3.997-3.997c0-2.217,1.787-4.001,3.997-4.001h79.958
		c2.21,0,3.998,1.784,3.998,4.001C87.952,270.008,86.165,271.803,83.955,271.803z"/>
	<path style="fill:#116FFF;" d="M427.694,271.803c-2.201,0-3.997-1.779-3.997-3.997c0-2.201,1.788-3.997,3.997-3.997l79.943-0.004
		c2.201,0,3.997,1.784,3.997,4.001c0,2.202-1.788,3.997-3.997,3.997H427.694z"/>
	<path style="fill:#116FFF;" d="M37.742,397.713c-1.382,0-2.725-0.718-3.466-1.998c-1.105-1.921-0.449-4.356,1.463-5.465
		l69.248-39.972c1.901-1.108,4.356-0.453,5.461,1.468c1.104,1.904,0.449,4.356-1.464,5.449l-69.247,39.973
		C39.108,397.542,38.421,397.713,37.742,397.713z"/>
	<path style="fill:#116FFF;" d="M404.679,185.869c-1.374,0-2.717-0.718-3.467-1.999c-1.101-1.913-0.444-4.356,1.468-5.457
		l69.217-39.971c1.904-1.125,4.356-0.461,5.465,1.46c1.101,1.912,0.444,4.356-1.468,5.457l-69.217,39.971
		C406.053,185.697,405.367,185.869,404.679,185.869z"/>
	<path style="fill:#116FFF;" d="M341.771,122.953c-0.688,0-1.374-0.172-1.999-0.539c-1.912-1.101-2.568-3.544-1.468-5.457
		l39.956-69.224c1.108-1.913,3.544-2.584,5.465-1.46c1.913,1.101,2.568,3.544,1.468,5.457l-39.956,69.224
		C344.488,122.234,343.145,122.953,341.771,122.953z"/>
	<path style="fill:#116FFF;" d="M255.84,99.915c-2.206,0-3.998-1.788-3.998-3.997l-0.008-79.928c0-2.209,1.788-3.997,3.998-3.997
		c2.205,0,3.997,1.788,3.997,3.997l0.008,79.928C259.838,98.127,258.049,99.915,255.84,99.915z"/>
	<path style="fill:#116FFF;" d="M169.905,122.937c-1.382,0-2.725-0.718-3.466-1.999l-39.972-69.216
		c-1.104-1.913-0.449-4.356,1.464-5.457c1.901-1.116,4.349-0.453,5.461,1.46l39.972,69.216c1.104,1.913,0.449,4.356-1.464,5.457
		C171.272,122.765,170.585,122.937,169.905,122.937z"/>
	<path style="fill:#116FFF;" d="M473.911,397.698c-0.687,0-1.374-0.172-1.998-0.546l-69.232-39.972
		c-1.912-1.093-2.568-3.545-1.468-5.449c1.109-1.921,3.553-2.576,5.465-1.468l69.232,39.972c1.912,1.108,2.568,3.544,1.468,5.465
		C476.628,396.98,475.285,397.698,473.911,397.698z"/>
	<path style="fill:#116FFF;" d="M106.982,185.838c-0.679,0-1.366-0.172-1.995-0.539l-69.224-39.956
		c-1.913-1.101-2.568-3.545-1.464-5.457c1.101-1.913,3.544-2.584,5.461-1.46l69.224,39.956c1.913,1.101,2.568,3.544,1.464,5.457
		C109.706,185.119,108.363,185.838,106.982,185.838z"/>
	<path style="fill:#116FFF;" d="M255.817,355.744c-1.093,0-2.136-0.453-2.893-1.233l-83.94-87.938
		c-1.241-1.312-1.46-3.283-0.535-4.82l23.983-39.972c0.722-1.21,2.022-1.944,3.427-1.944h119.915c1.405,0,2.701,0.734,3.427,1.944
		l23.983,39.972c0.929,1.537,0.71,3.509-0.539,4.82l-83.937,87.938C257.952,355.291,256.91,355.744,255.817,355.744z
		 M176.873,263.251l78.944,82.703l78.943-82.703l-21.251-35.419H198.124L176.873,263.251z"/>
	<path style="fill:#116FFF;" d="M323.768,267.806H187.865c-2.209,0-3.997-1.796-3.997-4.001c0-2.209,1.788-3.997,3.997-3.997
		h135.903c2.21,0,3.997,1.788,3.997,3.997C327.765,266.01,325.978,267.806,323.768,267.806z"/>
	<path style="fill:#116FFF;" d="M251.823,339.755c-1.467,0-2.876-0.812-3.58-2.217l-31.977-63.954
		c-0.988-1.968-0.187-4.372,1.788-5.355c1.976-0.999,4.372-0.188,5.364,1.78l31.977,63.954c0.987,1.983,0.188,4.372-1.788,5.371
		C253.034,339.615,252.424,339.755,251.823,339.755z"/>
	<path style="fill:#116FFF;" d="M259.81,339.755c-0.602,0-1.21-0.14-1.784-0.421c-1.976-0.999-2.775-3.388-1.788-5.371
		l31.978-63.954c0.983-1.968,3.388-2.779,5.363-1.78c1.976,0.983,2.771,3.388,1.788,5.355l-31.978,63.954
		C262.687,338.943,261.278,339.755,259.81,339.755z"/>
	<path style="fill:#116FFF;" d="M283.796,259.808c-0.921,0-1.842-0.312-2.6-0.96l-25.379-21.758l-25.381,21.758
		c-1.67,1.429-4.196,1.241-5.633-0.438c-1.44-1.671-1.245-4.2,0.434-5.637l27.98-23.982c1.491-1.28,3.708-1.28,5.2,0l27.979,23.982
		c1.679,1.437,1.874,3.966,0.43,5.637C286.045,259.332,284.921,259.808,283.796,259.808z"/>
	<path style="fill:#116FFF;" d="M219.842,259.808c-1.022,0-2.045-0.391-2.826-1.171l-23.983-23.983
		c-1.561-1.562-1.561-4.091,0-5.652c1.562-1.561,4.091-1.561,5.652,0l23.983,23.983c1.562,1.562,1.562,4.091,0,5.652
		C221.888,259.418,220.865,259.808,219.842,259.808z"/>
	<path style="fill:#116FFF;" d="M291.791,259.808c-1.022,0-2.045-0.391-2.826-1.171c-1.561-1.562-1.561-4.091,0-5.652l23.983-23.983
		c1.562-1.561,4.091-1.561,5.652,0c1.562,1.562,1.562,4.091,0,5.652l-23.983,23.983
		C293.837,259.418,292.814,259.808,291.791,259.808z"/>
	<path style="fill:#116FFF;" d="M421.823,227.324c-1.764,0-3.372-1.179-3.856-2.959c-0.57-2.139,0.703-4.325,2.826-4.903
		l39.051-10.469c2.131-0.523,4.324,0.703,4.887,2.826c0.578,2.139-0.688,4.325-2.826,4.903l-39.035,10.469
		C422.518,227.277,422.167,227.324,421.823,227.324z"/>
	<path style="fill:#116FFF;" d="M50.748,326.749c-1.764,0-3.376-1.171-3.856-2.951c-0.574-2.139,0.695-4.324,2.826-4.902
		l39.043-10.477c2.135-0.516,4.325,0.702,4.895,2.826c0.574,2.139-0.694,4.324-2.826,4.902l-39.043,10.477
		C51.439,326.702,51.091,326.749,50.748,326.749z"/>
	<path style="fill:#116FFF;" d="M377.347,150.285c-1.023,0-2.046-0.391-2.826-1.171c-1.562-1.562-1.562-4.091,0-5.652l28.573-28.589
		c1.562-1.562,4.091-1.562,5.652,0s1.562,4.091,0,5.652l-28.573,28.589C379.392,149.894,378.37,150.285,377.347,150.285z"/>
	<path style="fill:#116FFF;" d="M105.705,421.93c-1.023,0-2.045-0.39-2.826-1.17c-1.562-1.562-1.562-4.092,0-5.652l28.565-28.59
		c1.562-1.561,4.091-1.561,5.652,0c1.561,1.562,1.561,4.092,0,5.652l-28.566,28.59C107.751,421.541,106.728,421.93,105.705,421.93z"
		/>
	<path style="fill:#116FFF;" d="M300.3,105.801c-0.344,0-0.687-0.046-1.03-0.132c-2.14-0.57-3.403-2.764-2.826-4.896l10.431-39.05
		c0.577-2.132,2.794-3.334,4.895-2.834c2.131,0.57,3.396,2.764,2.834,4.895l-10.446,39.051
		C303.689,104.622,302.065,105.801,300.3,105.801z"/>
	<path style="fill:#116FFF;" d="M211.329,105.801c-1.764,0-3.376-1.179-3.856-2.958l-10.485-39.036
		c-0.574-2.131,0.69-4.325,2.822-4.895c2.131-0.578,4.325,0.694,4.898,2.818l10.485,39.034c0.574,2.132-0.691,4.325-2.822,4.896
		C212.024,105.755,211.672,105.801,211.329,105.801z"/>
	<path style="fill:#116FFF;" d="M134.278,150.285c-1.023,0-2.045-0.391-2.826-1.171l-28.589-28.558
		c-1.561-1.562-1.561-4.091,0-5.652c1.553-1.562,4.091-1.562,5.652,0l28.589,28.558c1.561,1.562,1.561,4.091,0,5.652
		C136.328,149.894,135.301,150.285,134.278,150.285z"/>
	<path style="fill:#116FFF;" d="M405.928,421.93c-1.022,0-2.046-0.39-2.826-1.17l-28.589-28.559c-1.562-1.561-1.562-4.091,0-5.652
		c1.554-1.561,4.091-1.561,5.652,0l28.589,28.559c1.562,1.561,1.562,4.09,0,5.652C407.974,421.541,406.951,421.93,405.928,421.93z"
		/>
	<path style="fill:#116FFF;" d="M89.806,227.339c-0.344,0-0.691-0.047-1.038-0.133l-39.051-10.445
		c-2.131-0.57-3.396-2.764-2.826-4.895s2.783-3.341,4.895-2.834l39.05,10.446c2.132,0.57,3.396,2.764,2.826,4.895
		C93.187,226.16,91.571,227.339,89.806,227.339z"/>
	<path style="fill:#116FFF;" d="M460.874,326.764c-0.344,0-0.688-0.047-1.03-0.141l-39.035-10.445
		c-2.139-0.578-3.404-2.764-2.826-4.887c0.562-2.14,2.779-3.357,4.887-2.842l39.035,10.445c2.139,0.578,3.404,2.764,2.826,4.902
		C464.261,325.578,462.638,326.764,460.874,326.764z"/>
</g>
<g>
</g>
<g>
</g>
<g>
</g>
<g>
</g>
<g>
</g>
<g>
</g>
<g>
</g>
<g>
</g>
<g>
</g>
<g>
</g>
<g>
</g>
<g>
</g>
<g>
</g>
<g>
</g>
<g>
</g>
</svg>
