<svg height="496pt" viewBox="0 0 496 496" width="496pt" xmlns="http://www.w3.org/2000/svg"><path d="m488 248c0 132.546875-107.453125 240-240 240s-240-107.453125-240-240 107.453125-240 240-240 240 107.453125 240 240zm0 0" fill="#85d3c1"/><path d="m259.199219 422.398438c3.199219 6.320312 4.800781 13.28125 4.800781 20.320312 0 24.960938-20.320312 45.28125-45.28125 45.28125h-133.4375c-12.480469 0-23.839844-5.121094-32-13.28125s-13.28125-19.519531-13.28125-32c0-7.039062 1.601562-14 4.800781-20.320312l13.597657-27.199219 20.722656-41.359375c15.519531 4.160156 20.320312 14.160156 43.519531 14.160156 29.359375 0 29.359375-16 58.640625-16 26.320312 0 29.117188 12.800781 50.480469 15.441406zm0 0" fill="#f9d48a"/><path d="m104 304v-88h-16c-4.398438 0-8.398438-1.761719-11.28125-4.71875-2.957031-2.882812-4.71875-6.882812-4.71875-11.28125 0-8.800781 7.199219-16 16-16h128c4.398438 0 8.398438 1.761719 11.28125 4.71875 2.957031 2.882812 4.71875 6.882812 4.71875 11.28125 0 8.800781-7.199219 16-16 16h-16v88l31.761719 63.441406c-21.363281-2.640625-24.160157-15.441406-50.480469-15.441406-29.28125 0-29.28125 16-58.640625 16-23.199219 0-28-10-43.519531-14.160156zm0 0" fill="#f5f7fa"/><path d="m416 216c-13.121094 0-24.71875-6.320312-32-16h-88l-64 64v103.519531c-.078125 0-.160156 0-.238281-.078125l27.4375 54.957032c3.199219 6.320312 4.800781 13.28125 4.800781 20.320312 0 24.960938-20.320312 45.28125-45.28125 45.28125h221.28125v-280.078125c-6.640625 5.117187-14.960938 8.078125-24 8.078125zm0 0" fill="#f5f7fa"/><path d="m408 232v96h-144v-64h32v-32zm0 0" fill="#ff958a"/><path d="m136 88v64h176v-64zm0 0" fill="#ff958a"/><path d="m136 120v32l-48-32 48-32zm0 0" fill="#f9d48a"/><path d="m376 120c-17.679688 0-32 14.320312-32 32h-32v-64h32c0 17.679688 14.320312 32 32 32zm0 0" fill="#f5f7fa"/><path d="m376 120h80c17.679688 0 32 14.320312 32 32 0 9.601562-4.238281 18.238281-10.960938 24.078125-5.679687 4.960937-13.039062 7.921875-21.039062 7.921875-.238281 0-.558594-.078125-.800781-.078125-2 9.757813-7.519531 18.238281-15.199219 24-6.640625 5.117187-14.960938 8.078125-24 8.078125-13.121094 0-24.71875-6.320312-32-16-3.519531-4.640625-6-10.078125-7.199219-16-.242187 0-.5625 0-.800781 0-17.679688 0-32-14.320312-32-32s14.320312-32 32-32zm0 0" fill="#f9d48a"/><path d="m376.800781 56c.640625-3.039062 1.597657-5.921875 2.878907-8.71875 6.242187-13.761719 20.160156-23.28125 36.320312-23.28125 19.359375 0 35.519531 13.761719 39.199219 32.078125.242187 0 .5625-.078125.800781-.078125 17.679688 0 32 14.320312 32 32s-14.320312 32-32 32h-80c-17.679688 0-32-14.320312-32-32s14.320312-32 32-32zm0 0" fill="#f9d48a"/><g fill="#232323"><path d="m496 152c0-13.070312-6.304688-24.695312-16.023438-32 9.71875-7.304688 16.023438-18.929688 16.023438-32 0-20.230469-15.105469-37.007812-34.625-39.640625-6.574219-19.078125-24.75-32.359375-45.375-32.359375-15.886719 0-30.207031 7.992188-39.007812 20.335938-38.816407-23.703126-83.175782-36.335938-128.992188-36.335938-136.753906 0-248 111.257812-248 248 0 53.929688 17.054688 104.902344 49.113281 147.894531l-11.480469 22.96875c-3.6875 7.367188-5.632812 15.609375-5.632812 23.832031 0 29.394532 23.910156 53.304688 53.304688 53.304688h362.695312v-101.496094c31.351562-42.703125 48-93.28125 48-146.503906 0-23.6875-3.464844-47.039062-10.03125-69.542969 6.238281-7.058593 10.03125-16.320312 10.03125-26.457031zm-16 0c0 13.105469-10.558594 23.792969-23.617188 24l-7.695312-.265625-1.328125 6.609375c-2.992187 14.863281-16.183594 25.65625-31.359375 25.65625-12.34375 0-23.28125-7.199219-28.585938-17.863281 16.472657-4.953125 28.585938-20.074219 28.585938-38.136719v-8h-16v8c0 13.230469-10.769531 24-24 24s-24-10.769531-24-24 10.769531-24 24-24h80c13.230469 0 24 10.769531 24 24zm-143.136719-8h-16.863281v-48h16.863281c1.992188 9.742188 7.480469 18.230469 15.160157 24-7.679688 5.769531-13.167969 14.257812-15.160157 24zm-32.863281-32h-160v-16h160zm-176 25.054688-25.574219-17.054688 25.574219-17.054688zm16-9.054688h160v16h-160zm272-96c15.175781 0 28.367188 10.792969 31.359375 25.664062l1.328125 6.609376 6.746094-.195313c.328125-.007813.636718-.039063.964844-.078125 13.050781.214844 23.601562 10.894531 23.601562 24 0 13.230469-10.769531 24-24 24h-80c-13.230469 0-24-10.769531-24-24s10.769531-24 24-24c10.960938 0 20.511719 7.398438 23.238281 18l15.503907-3.992188c-3.558594-13.816406-14.125-24.28125-27.277344-28.222656 5.3125-10.617187 16.222656-17.785156 28.535156-17.785156zm-400 216c0-127.929688 104.078125-232 232-232 42.265625 0 83.207031 11.496094 119.144531 33.0625-15.234375 3.472656-27.207031 15.585938-30.335937 30.9375h-203.234375l-60 40 60 40h203.234375c3.367187 16.519531 17 29.191406 33.886718 31.464844.066407.175781.097657.359375.160157.535156h-78.167969l-68.6875 68.6875v73.425781l-16-32v-78.113281h8c13.230469 0 24-10.769531 24-24s-10.769531-24-24-24h-128c-13.230469 0-24 10.769531-24 24s10.769531 24 24 24h8v78.113281l-38.808594 77.613281c-26.886718-38.796874-41.191406-84.015624-41.191406-131.726562zm92.945312 64h51.054688v-16h-48v-72h64v-16h-88c-4.414062 0-8-3.59375-8-8s3.585938-8 8-8h128c4.414062 0 8 3.59375 8 8s-3.585938 8-8 8h-24v97.886719l23.929688 47.855469c-.480469-.261719-.953126-.503907-1.449219-.765626-7.703125-4.207031-16.449219-8.976562-33.160157-8.976562-16.710937 0-25.464843 4.769531-33.167968 8.976562-6.921875 3.765626-12.886719 7.023438-25.511719 7.023438s-18.585937-3.257812-25.496094-7.023438c-2.121093-1.160156-4.390625-2.390624-6.914062-3.5625zm142.367188-56 36.6875-36.6875v36.6875zm20.6875 16h32v-32h96v80h-128zm-56 208h-130.695312c-20.570313 0-37.304688-16.734375-37.304688-37.304688 0-5.757812 1.359375-11.519531 3.9375-16.679687l31.132812-62.273437c2.152344.976562 4.210938 2.082031 6.410157 3.28125 7.710937 4.207031 16.457031 8.976562 33.160156 8.976562s25.457031-4.769531 33.167969-8.976562c6.910156-3.765626 12.878906-7.023438 25.511718-7.023438 12.632813 0 18.589844 3.257812 25.503907 7.023438 5.191406 2.832031 11.128906 5.886718 19.542969 7.601562l25.695312 51.382812c2.578125 5.160157 3.9375 10.929688 3.9375 16.6875 0 20.570313-16.734375 37.304688-37.304688 37.304688zm40.703125 0c9.449219-9.625 15.296875-22.792969 15.296875-37.304688 0-8.222656-1.945312-16.464843-5.625-23.832031l-26.375-52.75v-94.113281h16v64h160v-112h-112v-16h76.328125c8.886719 9.863281 21.703125 16 35.671875 16 5.585938 0 10.960938-1.046875 16-2.847656v258.847656zm223.296875-232c0 41.839844-11.105469 81.878906-32 117.328125v-153.753906c5.960938-5.359375 10.679688-12.117188 13.375-19.933594 3.800781-.511719 7.359375-1.703125 10.746094-3.207031 5.125 19.351562 7.878906 39.320312 7.878906 59.566406zm0 0"/><path d="m256 352h160v16h-160zm0 0"/><path d="m288 384h16v16h-16zm0 0"/><path d="m320 384h96v16h-96zm0 0"/><path d="m288 416h128v16h-128zm0 0"/><path d="m288 448h96v16h-96zm0 0"/><path d="m400 448h16v16h-16zm0 0"/></g></svg>