<svg height="479pt" viewBox="0 -27 479.99829 479" width="479pt" xmlns="http://www.w3.org/2000/svg"><g fill="#4db7e5"><path d="m0 48.5h72v16h-72zm0 0"/><path d="m152 48.5h88v16h-88zm0 0"/><path d="m477.65625 50.84375-32-32-11.3125 11.3125 18.34375 18.34375h-116.6875v16h64v168h-64v16h72c4.417969 0 8-3.582031 8-8v-176h36.6875l-18.34375 18.34375 11.3125 11.3125 32-32c3.121094-3.125 3.121094-8.1875 0-11.3125zm0 0"/><path d="m120 131.8125 18.34375 18.34375 11.3125-11.3125-32-32c-3.125-3.125-8.1875-3.125-11.3125 0l-32 32 11.3125 11.3125 18.34375-18.34375v108.6875c0 4.417969 3.582031 8 8 8h128v-16h-120zm0 0"/></g><path d="m168 56.5c0 30.925781-25.070312 56-56 56s-56-25.074219-56-56c0-30.929688 25.070312-56 56-56s56 25.070312 56 56zm0 0" fill="#ffb531"/><path d="m224 8.5h128v96h-128zm0 0" fill="#348fd9"/><path d="m304 288.5h48v-96h-128v96h48" fill="#348fd9"/><path d="m244 104.5h108v-96h-12zm0 0" fill="#3086cd"/><path d="m244 288.5h108v-96h-12zm0 0" fill="#3086cd"/><path d="m78.136719 101.027344c22.265625 17.027344 53.699219 14.941406 73.519531-4.882813 19.820312-19.820312 21.90625-51.25 4.878906-73.515625zm0 0" fill="#ffa912"/><path d="m352 48.5h16v16h-16zm0 0" fill="#45a7d1"/><path d="m352 232.5h16v16h-16zm0 0" fill="#45a7d1"/><path d="m208 48.5h16v16h-16zm0 0" fill="#45a7d1"/><path d="m208 232.5h16v16h-16zm0 0" fill="#45a7d1"/><path d="m386.6875 320.714844c-4.648438-.792969-9.410156.507812-13.011719 3.550781-3.601562 3.042969-5.679687 7.519531-5.675781 12.234375 0-8.835938-7.164062-16-16-16s-16 7.164062-16 16c0-8.835938-7.164062-16-16-16s-16 7.164062-16 16v-63.144531c.179688-8.039063-5.429688-15.050781-13.3125-16.640625-4.648438-.792969-9.410156.507812-13.011719 3.550781-3.601562 3.042969-5.679687 7.519531-5.675781 12.234375v112l-33.351562-20c-4.144532-2.496094-9.277344-2.695312-13.601563-.527344l-1.253906.628906c-4.777344 2.394532-7.792969 7.28125-7.792969 12.625-.003906 4.5625 2.199219 8.84375 5.910156 11.496094l50.089844 35.777344h128v-87.144531c.179688-8.039063-5.429688-15.050781-13.3125-16.640625zm0 0" fill="#fec9a3"/><path d="m386.6875 320.714844c-1.152344-.179688-2.320312-.238282-3.488281-.175782-27.007813 48.367188-72 83.015626-105.886719 103.960938h122.6875v-87.144531c.179688-8.039063-5.429688-15.050781-13.3125-16.640625zm0 0" fill="#fec093"/></svg>