<svg height="456pt" viewBox="-4 0 456 456" width="456pt" xmlns="http://www.w3.org/2000/svg"><path d="m184 256h-184l88 56v-24h88c8.835938 0 16 7.164062 16 16v152h32v-160c0-22.089844-17.910156-40-40-40zm0 0" fill="#ffcd00"/><path d="m192 224h-104v-24l-88 56h184c22.089844 0 40 17.910156 40 40v160h32v-168c0-35.347656-28.652344-64-64-64zm0 0" fill="#ffd31c"/><path d="m256 376h104v24l88-56h-192zm0 0" fill="#5eac24"/><path d="m360 312h-104v32h192l-88-56zm0 0" fill="#70b53c"/><path d="m224 160v72.625c19.800781 11.410156 32 32.523438 32 55.375v-120c0-8.835938 7.164062-16 16-16h88v24l88-56h-184c-22.089844 0-40 17.910156-40 40zm0 0" fill="#ff3051"/><path d="m360 88h-104c-35.347656 0-64 28.652344-64 64v72c11.242188-.003906 22.28125 2.972656 32 8.625v-72.625c0-22.089844 17.910156-40 40-40h184l-88-56zm0 0" fill="#ff4764"/><path d="m192 24h-104v-24l-88 56h192c17.671875 0 32 14.328125 32 32v8.625c9.71875-5.652344 20.757812-8.628906 32-8.625 0-35.347656-28.652344-64-64-64zm0 0" fill="#3c95ff"/><path d="m192 56h-192l88 56v-24h88c8.824219.027344 15.972656 7.175781 16 16v48c0-22.851562 12.199219-43.964844 32-55.375v-8.625c0-17.671875-14.328125-32-32-32zm0 0" fill="#2488ff"/></svg>